<!--?xml version="1.0" standalone="no"?-->
              <svg id="sw-js-blob-svg" viewBox="0 0 100 100" xmlns="http://www.w3.org/2000/svg" version="1.1">
                    <defs> 
                        <linearGradient id="sw-gradient" x1="0" x2="1" y1="1" y2="0">
                            <stop id="stop1" stop-color="rgba(251, 191, 36, 1)" offset="0%"></stop>
                            <stop id="stop2" stop-color="rgba(251, 191, 36, 1)" offset="100%"></stop>
                        </linearGradient>
                    </defs>
                <path fill="url(#sw-gradient)" d="M26.4,-34.3C31.7,-27,31.7,-16.3,33.3,-6C34.9,4.3,38.2,14.1,34.8,20.2C31.4,26.3,21.3,28.5,12.5,29.8C3.6,31.1,-4,31.4,-12.4,30.1C-20.9,28.8,-30.3,25.8,-34.5,19.4C-38.8,13.1,-38,3.3,-35.8,-5.8C-33.7,-14.9,-30.1,-23.3,-23.9,-30.4C-17.7,-37.5,-8.9,-43.3,0.9,-44.3C10.6,-45.4,21.1,-41.6,26.4,-34.3Z" width="100%" height="100%" transform="translate(50 50)" stroke-width="0" style="transition: all 0.3s ease 0s;" stroke="url(#sw-gradient)"></path>
              </svg>